<svg xmlns="http://www.w3.org/2000/svg" width="150" height="50"><path fill="#222" d="M57.49 28.81Q54.94 28.77 53.64 29.91Q52.20 31.13 52.39 33.64Q52.65 36.57 53.83 37.64Q55.32 38.93 57.41 38.78Q59.54 38.78 60.95 37.52Q62.28 36.38 62.47 33.83Q62.85 28.92 57.49 28.81M57.33 41.33L55.77 41.33Q52.92 41.33 51.43 39.92Q50.44 38.90 50.18 36.95Q50.03 35.85 49.87 33.64Q49.80 32.65 49.68 30.41Q49.61 28.54 50.56 27.40Q52.31 25.91 57.03 26.07Q61.94 26.22 63.77 27.74Q65.25 28.96 65.06 32.16Q64.83 35.70 64.76 36.12Q64.45 38.40 63.12 39.58Q61.14 41.33 57.33 41.33M62.02 43.73Q63.50 43.77 65.41 43.62Q65.90 43.54 65.90 43.39Q65.90 43.31 65.86 43.16Q65.82 43.01 65.82 42.89Q65.82 42.63 66.17 42.32Q67.04 41.18 67.04 39.28Q67.04 38.32 66.95 35.91Q66.85 33.49 66.70 32.39Q66.32 30.25 65.41 29.11L65.10 28.92Q64.95 28.27 64.15 27.36Q61.86 25.65 56.95 25.65L55.20 25.65Q51.89 25.65 50.18 27.02Q49.30 28.12 49.34 30.14Q49.38 30.60 49.51 31.85Q49.64 33.11 49.61 33.57Q49.83 36.61 49.91 37.07Q50.25 39.16 51.17 40.30L51.32 40.53Q52.16 43.01 55.89 43.43Q56.76 43.54 62.02 43.73M59.31 31.09Q60.19 31.13 61.86 31.66Q62.21 32.39 62.17 33.87Q62.06 37.33 59.16 38.10Q58.44 38.29 57.41 38.40Q56.38 38.48 54.67 37.87Q54.40 37.14 54.44 35.66Q54.52 33.34 55.89 32.31Q56.76 31.40 59.31 31.09Z"/><path fill="#222" d="M25.87 28.62Q23.05 28.62 22.29 30.86Q22.06 31.59 21.95 32.23Q24.54 32.42 26.17 32.42Q27.85 32.46 30.44 32.35Q30.32 30.63 28.91 29.57Q27.66 28.62 25.87 28.62M25.95 41.18Q21.72 41.18 20.43 39.77Q19.47 38.32 19.32 35.05Q19.32 34.82 19.25 33.45Q19.09 31.13 19.09 30.41Q19.09 28.54 19.82 27.44Q21.22 26.03 24.19 26.03L25.75 26.03Q27.81 26.03 29.33 26.33Q31.39 26.79 32.38 28.01Q33.03 29.11 33.10 31.21Q33.06 32.31 33.10 34.48Q30.25 34.52 27.47 34.52L21.87 34.52Q22.02 38.93 26.10 38.70Q29.87 38.51 31.08 36.69Q31.96 37.22 33.56 38.40Q32.19 40.80 28.04 41.07Q27.32 41.10 25.95 41.18M28.27 43.54Q29.33 43.46 30.55 43.54Q35.54 43.73 36.45 40.95Q34.85 39.73 33.75 38.97Q33.90 38.55 34.09 38.32Q33.37 37.87 32.00 36.92Q33.06 36.95 35.12 37.26Q34.97 35.93 34.89 35.24L34.74 33.30Q34.59 30.94 33.94 29.45Q33.67 29.11 33.10 28.50Q32.95 28.20 32.72 27.63Q30.82 25.57 25.75 25.57L24.08 25.57Q20.84 25.57 19.40 27.06Q18.71 28.16 18.75 30.22Q18.83 31.21 18.94 33.45Q19.02 35.05 19.13 37.11Q19.40 39.35 20.27 40.42Q20.43 40.57 20.62 40.68L20.92 41.33Q21.68 43.16 28.27 43.54M26.14 38.32Q24.96 38.40 24.04 37.94Q24.00 37.56 23.81 36.88Q25.49 36.76 27.09 36.76Q28.76 36.76 30.44 36.88Q29.14 38.21 26.14 38.32M27.77 30.98Q28.42 31.01 29.75 31.40L29.90 31.74L29.94 31.97Q28.57 32.08 27.66 32.04Q25.37 32.00 25.34 32.00Q26.10 31.09 27.77 30.98Z"/><path fill="#444" d="M116.10 23.40Q112.90 23.40 111.07 22.34Q113.58 20.96 118.46 16.74Q119.18 16.55 120.47 15.94Q119.14 21.88 119.03 28.24Q118.91 34.59 119.98 40.68Q118.30 39.96 116.17 39.85Q116.06 35.70 116.06 31.62Q116.06 27.51 116.10 23.40M115.72 40.23Q116.93 40.23 117.89 40.42Q117.96 41.10 118.15 42.47Q121.01 43.01 123.44 45.25Q120.97 38.13 120.93 30.67Q120.86 23.21 122.68 15.98Q122.15 16.40 120.55 17.50Q120.74 16.74 121.05 15.22Q119.71 15.98 118.27 16.36Q114.50 19.94 110.20 22.22Q111.60 23.32 113.96 23.67Q113.32 24.20 112.02 25.27Q113.51 25.65 115.72 25.65L115.72 40.23Z"/><path fill="#333" d="M92.51 28.69L86.61 28.77Q83.68 28.81 80.75 28.73Q80.86 35.43 78.81 40.95Q76.98 41.45 75.23 42.13Q78.01 36.42 78.01 29.76Q78.01 21.27 73.90 14.23Q75.42 15.03 77.89 15.83Q80.03 20.89 80.56 25.76Q83.76 26.18 86.61 26.14Q89.28 26.14 92.59 25.88Q93.04 21.46 94.80 16.36Q96.74 15.94 98.98 15.10Q95.37 21.84 95.37 29.80Q95.37 36.00 97.73 41.33Q96.13 40.72 94.07 40.42Q92.40 35.39 92.51 28.69M93.81 40.76Q94.83 40.91 95.94 41.18Q96.28 41.90 96.93 43.39Q100.28 44.34 102.07 45.25Q97.61 39.09 97.31 30.82Q97.00 22.79 100.66 15.98L99.59 16.43Q99.10 16.66 98.49 16.82Q98.91 16.02 99.74 14.45Q97.08 15.48 94.45 15.98Q92.78 20.81 92.32 25.49Q89.85 25.72 87.41 25.72Q85.01 25.72 82.50 25.57Q82.27 22.30 81.17 18.22Q80.48 18.11 79.04 17.73Q78.65 16.51 78.20 15.48Q75.46 14.72 73.17 13.46Q77.74 20.89 77.74 29.68Q77.74 36.65 74.62 42.78Q75.34 42.51 76.67 41.94Q76.33 42.78 75.53 44.30Q78.35 43.31 80.60 42.89Q82.46 37.33 82.65 31.17Q84.25 31.09 87.45 31.05Q90.30 31.01 92.21 31.09Q92.47 36.84 93.81 40.76Z"/><path d="M21 9 C75 16,93 46,148 38" stroke="#777" fill="none"/></svg>