<svg xmlns="http://www.w3.org/2000/svg" width="150" height="50"><path d="M19 3 C70 41,85 18,134 25" stroke="#555" fill="none"/><path fill="#444" d="M20.54 47.08Q19.59 47.27 17.68 47.58Q18.98 45.41 20.01 44.11Q21.76 44.42 21.91 44.42Q22.21 44.49 22.75 44.38Q23.43 44.30 23.62 44.30Q26.17 44.03 26.10 41.86Q26.06 40.38 25.95 34.14Q25.91 30.60 25.98 26.45L27.39 26.26Q28.04 26.14 28.72 25.91Q28.50 30.33 28.53 34.71Q28.57 39.09 29.11 43.46Q29.18 43.77 29.18 44.03Q29.18 45.67 27.51 46.05Q24.38 46.43 20.54 47.08M25.18 19.75Q26.21 18.34 28.04 15.56Q28.72 16.47 30.06 18.30L27.32 22.87L25.18 19.75M30.32 49.48Q30.86 49.52 31.62 49.17Q31.96 48.49 31.96 48.03Q31.92 47.65 31.81 47.04Q30.48 40.65 30.48 32.73Q30.48 29.87 30.63 26.98Q30.09 27.17 28.95 27.47Q28.95 26.98 28.99 26.45L29.11 25.38Q27.39 26.03 25.60 26.07Q25.53 30.37 25.56 33.95L25.72 41.83Q25.79 43.81 23.62 43.92Q23.39 43.92 22.88 43.98Q22.37 44.03 22.10 44.03Q21.61 44.00 20.04 43.58Q19.59 44.19 18.48 45.86L16.96 48.18Q17.84 47.99 19.47 47.61L19.02 48.34L18.48 48.98Q20.77 48.83 22.10 48.91Q24.38 49.06 30.32 49.48M27.28 23.59L27.62 23.06Q28.00 23.52 28.95 25.11Q30.48 21.99 32.04 18.91Q31.05 17.31 30.09 16.02Q29.90 16.24 29.56 16.78Q29.14 16.13 28.15 14.84Q26.97 16.43 24.65 19.78Q25.56 21.00 27.28 23.59Z"/><path fill="#333" d="M77.72 38.97Q79.55 36.54 84.31 29.26Q88.38 23.10 91.24 19.82Q89.14 20.13 87.05 20.13Q81.80 20.13 77.80 18.34Q77.11 16.40 76.43 14.84Q81.00 17.01 86.67 17.12Q91.81 17.20 96.98 15.29Q96.60 16.13 96.30 16.93L95.73 18.53Q92.65 22.14 88.65 27.97L85.34 32.80Q83.66 35.24 81.83 37.52Q85.15 36.92 88.46 36.99Q91.81 37.11 94.97 38.02L95.46 39.62Q95.69 40.42 96.03 41.26Q91.35 39.66 86.21 39.85Q81.11 40.08 76.62 42.09Q77.00 41.03 77.72 38.97M76.01 42.78Q77.23 42.17 78.03 41.90Q77.76 42.66 77.07 44.19Q82.79 42.06 88.76 42.28Q95.08 42.51 100.11 45.29Q98.70 42.89 97.90 40.72Q97.40 40.49 95.88 39.92Q95.69 39.16 95.27 37.68Q91.12 36.50 86.02 36.69Q88.15 33.95 91.69 28.39Q95.35 22.68 97.25 20.13Q97.75 18.72 98.77 16.02Q98.09 16.36 96.64 16.97Q96.98 16.17 97.71 14.65Q92.38 16.78 86.67 16.70Q80.69 16.59 75.74 14.07Q76.88 16.43 77.61 18.68Q78.71 19.21 79.51 19.44Q79.78 20.13 80.04 21.57Q83.77 22.64 88.65 22.45Q86.25 25.65 82.94 30.63L77.42 38.97Q77.04 40.23 76.01 42.78Z"/><path fill="#333" d="M57.49 28.81Q54.94 28.77 53.64 29.91Q52.20 31.13 52.39 33.64Q52.65 36.57 53.83 37.64Q55.32 38.93 57.41 38.78Q59.54 38.78 60.95 37.52Q62.28 36.38 62.47 33.83Q62.85 28.92 57.49 28.81M57.33 41.33L55.77 41.33Q52.92 41.33 51.43 39.92Q50.44 38.90 50.18 36.95Q50.03 35.85 49.87 33.64Q49.80 32.65 49.68 30.41Q49.61 28.54 50.56 27.40Q52.31 25.91 57.03 26.07Q61.94 26.22 63.77 27.74Q65.25 28.96 65.06 32.16Q64.83 35.70 64.76 36.12Q64.45 38.40 63.12 39.58Q61.14 41.33 57.33 41.33M62.02 43.73Q63.50 43.77 65.41 43.62Q65.90 43.54 65.90 43.39Q65.90 43.31 65.86 43.16Q65.82 43.01 65.82 42.89Q65.82 42.63 66.17 42.32Q67.04 41.18 67.04 39.28Q67.04 38.32 66.95 35.91Q66.85 33.49 66.70 32.39Q66.32 30.25 65.41 29.11L65.10 28.92Q64.95 28.27 64.15 27.36Q61.86 25.65 56.95 25.65L55.20 25.65Q51.89 25.65 50.18 27.02Q49.30 28.12 49.34 30.14Q49.38 30.60 49.51 31.85Q49.64 33.11 49.61 33.57Q49.83 36.61 49.91 37.07Q50.25 39.16 51.17 40.30L51.32 40.53Q52.16 43.01 55.89 43.43Q56.76 43.54 62.02 43.73M59.31 31.09Q60.19 31.13 61.86 31.66Q62.21 32.39 62.17 33.87Q62.06 37.33 59.16 38.10Q58.44 38.29 57.41 38.40Q56.38 38.48 54.67 37.87Q54.40 37.14 54.44 35.66Q54.52 33.34 55.89 32.31Q56.76 31.40 59.31 31.09Z"/><path fill="#222" d="M114.67 28.62Q111.85 28.62 111.09 30.86Q110.86 31.59 110.75 32.23Q113.34 32.42 114.97 32.42Q116.65 32.46 119.24 32.35Q119.12 30.63 117.71 29.57Q116.46 28.62 114.67 28.62M114.75 41.18Q110.52 41.18 109.23 39.77Q108.27 38.32 108.12 35.05Q108.12 34.82 108.05 33.45Q107.89 31.13 107.89 30.41Q107.89 28.54 108.62 27.44Q110.02 26.03 112.99 26.03L114.55 26.03Q116.61 26.03 118.13 26.33Q120.19 26.79 121.18 28.01Q121.83 29.11 121.90 31.21Q121.86 32.31 121.90 34.48Q119.05 34.52 116.27 34.52L110.67 34.52Q110.82 38.93 114.90 38.70Q118.67 38.51 119.88 36.69Q120.76 37.22 122.36 38.40Q120.99 40.80 116.84 41.07Q116.12 41.10 114.75 41.18M117.07 43.54Q118.13 43.46 119.35 43.54Q124.34 43.73 125.25 40.95Q123.65 39.73 122.55 38.97Q122.70 38.55 122.89 38.32Q122.17 37.87 120.80 36.92Q121.86 36.95 123.92 37.26Q123.77 35.93 123.69 35.24L123.54 33.30Q123.39 30.94 122.74 29.45Q122.47 29.11 121.90 28.50Q121.75 28.20 121.52 27.63Q119.62 25.57 114.55 25.57L112.88 25.57Q109.64 25.57 108.20 27.06Q107.51 28.16 107.55 30.22Q107.63 31.21 107.74 33.45Q107.82 35.05 107.93 37.11Q108.20 39.35 109.07 40.42Q109.23 40.57 109.42 40.68L109.72 41.33Q110.48 43.16 117.07 43.54M114.94 38.32Q113.76 38.40 112.84 37.94Q112.80 37.56 112.61 36.88Q114.29 36.76 115.89 36.76Q117.56 36.76 119.24 36.88Q117.94 38.21 114.94 38.32M116.57 30.98Q117.22 31.01 118.55 31.40L118.70 31.74L118.74 31.97Q117.37 32.08 116.46 32.04Q114.17 32.00 114.14 32.00Q114.90 31.09 116.57 30.98Z"/></svg>