<svg xmlns="http://www.w3.org/2000/svg" width="150" height="50"><path d="M8 16 C68 23,76 30,135 36" stroke="#333" fill="none"/><path fill="#444" d="M26.90 19.67Q24.92 19.78 23.97 19.94Q22.33 20.17 21.11 20.70Q17.61 22.14 17.49 26.83Q17.42 29.49 18.06 32.42Q18.94 36.46 22.56 37.64Q24.46 38.21 25.91 38.06L26.33 38.02Q26.52 38.02 26.71 38.06Q26.86 38.06 27.01 38.02Q29.64 37.75 31.01 37.18L27.43 33.64Q27.77 33.34 28.38 32.73L29.30 31.81Q31.12 33.87 33.10 35.93Q35.42 34.10 35.69 28.73Q35.77 27.82 35.77 26.90Q35.77 21.23 30.70 20.13Q29.41 19.82 26.90 19.67M39.65 41.71Q39.08 42.17 37.90 43.04L33.48 39.35Q31.01 40.57 26.74 40.61Q20.20 40.72 17.38 38.48Q15.59 36.69 15.13 33.72Q14.94 31.93 14.56 28.35Q14.56 27.63 14.45 25.88Q14.30 24.31 14.33 23.44Q14.45 20.39 16.20 18.83Q17.72 17.50 20.92 17.01Q23.39 16.62 26.29 16.70Q33.79 16.82 36.91 19.18Q39.08 21.31 38.81 26.22Q38.62 29.87 38.43 31.21Q37.78 35.70 35.46 38.02Q36.91 39.24 39.65 41.71M34.82 17.46Q32.80 16.74 26.29 16.24Q24.92 16.28 22.14 16.40Q17.91 16.62 15.67 18.60Q13.99 20.05 13.99 23.21Q13.99 24.05 14.14 25.76Q14.30 27.47 14.30 28.35Q14.45 30.10 14.83 33.68Q15.17 36.54 16.77 38.59Q17.11 39.43 18.33 40.57Q21.07 42.59 26.25 42.85Q26.59 42.85 28.99 42.97Q33.79 43.12 36.07 42.06Q36.95 42.74 41.67 46.32Q42.28 45.79 43.57 44.80Q42.70 44.11 41.90 43.43L40.22 41.94L40.34 41.90Q39.76 41.45 38.55 40.42Q40.45 37.91 40.45 33.38Q40.45 32.96 40.49 32.12Q40.53 31.28 40.53 30.86Q40.53 25.34 39.80 22.98Q39.42 21.69 38.55 20.62Q37.75 18.49 34.82 17.46M28.80 22.03Q32.87 21.95 34.70 23.55Q35.27 24.77 35.39 26.10Q35.46 27.36 35.39 28.73Q35.04 33.68 33.10 35.39Q31.81 34.10 29.30 31.36Q28.50 32.08 26.94 33.64Q27.51 34.25 28.65 35.43L28.57 35.47Q29.14 36.00 30.17 37.07Q29.18 37.33 26.86 37.64L26.33 37.64L25.95 37.68L25.91 37.68Q22.44 37.68 20.46 36.04Q19.44 33.95 19.47 30.82Q19.63 22.11 28.80 22.03Z"/><path fill="#111" d="M48.18 14.30Q51.99 16.85 56.74 17.08Q61.35 17.23 65.61 15.48Q65.39 16.05 64.62 18.83Q61.88 19.86 58.91 20.01Q55.95 20.17 53.05 19.44Q53.74 23.06 53.93 26.71Q55.95 26.94 57.54 26.90Q58.76 26.90 61.16 26.79Q61.12 27.44 61.12 28.12L61.12 29.45Q58.72 29.45 53.93 29.53Q53.93 33.64 53.36 37.64Q55.98 36.99 58.72 37.11Q61.43 37.18 64.02 38.02Q64.09 38.82 64.36 39.58L64.82 41.10Q61.62 39.81 58.19 39.81Q53.32 39.81 49.05 42.06Q51.38 35.24 51.11 28.12Q50.84 20.96 48.18 14.30M48.56 42.78Q49.82 42.06 50.58 41.71Q50.39 42.47 49.82 44.00Q54.35 42.02 59.41 42.28Q64.59 42.59 68.58 45.29Q67.40 42.74 66.72 40.80Q65.73 40.19 64.74 39.85Q64.36 38.48 64.21 37.68Q61.12 36.69 57.96 36.69Q56.82 36.69 55.68 36.80Q55.79 35.55 55.83 34.33L55.91 31.81Q57.73 31.74 59.52 31.78Q61.35 31.81 63.14 31.97Q63.06 31.01 63.06 30.06L63.06 28.16L62.26 28.24Q61.85 28.31 61.39 28.31Q61.39 27.63 61.54 26.33Q59.94 26.56 58.76 26.60Q57.81 26.60 55.98 26.52Q55.91 25.11 55.72 22.30Q56.74 22.41 57.73 22.41Q62.45 22.41 66.15 20.51Q66.72 18.15 67.59 15.94Q66.26 16.78 65.42 17.12Q65.73 16.36 66.19 14.80Q61.54 16.93 56.67 16.62Q51.38 16.32 47.53 13.46Q50.43 20.43 50.73 28.05Q51.07 36.00 48.56 42.78Z"/><path fill="#111" d="M96.53 23.06Q94.70 25.76 92.04 31.40L90.06 35.66Q89.18 37.56 87.85 39.81Q88.31 39.81 86.63 39.85Q86.63 39.85 85.37 39.85Q84.65 38.36 81.72 31.21Q79.55 25.84 77.46 22.83Q78.22 25.91 78.22 29.07Q78.22 35.58 75.25 41.14Q73.91 41.48 71.55 42.21Q75.25 36.54 75.25 29.30Q75.25 20.36 69.84 13.39Q71.48 14.11 73.84 14.80Q80.88 21.54 86.97 34.86Q90.48 27.86 92.68 24.35Q96.26 18.57 100.22 15.10Q101.48 14.87 103.84 14.11Q98.85 20.74 98.85 29.34Q98.85 36.00 102.28 41.52Q100.94 41.22 98.20 40.61Q95.84 35.81 95.84 29.83Q95.84 26.41 96.53 23.06M98.01 40.99Q98.70 41.10 100.14 41.37Q100.60 42.13 101.55 43.62Q103.69 44.03 107.15 45.25Q100.87 38.90 100.87 29.07Q100.87 21.35 105.25 15.22L103.08 15.94Q104.07 14.38 104.71 13.50Q102.85 14.15 100.22 14.68Q93.44 20.77 87.39 33.38Q82.21 22.41 77.26 17.16Q76.88 17.08 76.31 16.97L75.10 15.67Q74.52 15.03 73.84 14.42Q70.79 13.43 69.00 12.70Q74.98 19.90 74.98 29.30Q74.98 36.92 70.83 42.78Q71.52 42.55 72.81 42.13Q72.70 42.40 71.29 44.49Q73.08 44.00 76.58 43.24Q80.31 36.19 80.12 28.43Q81.64 32.42 85.11 40.30Q85.34 40.23 85.56 40.23L86.10 40.23Q86.55 40.91 87.35 42.21Q88.99 42.21 88.99 42.21Q89.98 42.17 90.63 42.25Q92.19 38.21 95.54 30.22Q95.42 35.66 98.01 40.99Z"/><path fill="#333" d="M114.17 25.08Q115.01 25.38 116.99 25.38L117.03 32.58Q117.07 36.84 117.18 39.73Q116.84 39.62 116.46 39.62Q115.01 39.62 113.57 40.95Q114.36 33.34 114.17 25.08M113.07 17.12Q114.59 16.05 115.32 15.10Q116.38 16.97 117.79 18.64Q116.99 20.17 115.62 22.30Q114.78 21.12 114.21 19.78L113.07 17.12M113.03 41.83Q114.02 40.72 115.28 40.23Q115.28 40.91 115.16 42.28Q115.85 42.06 116.50 42.06Q118.70 42.06 120.11 44.03Q118.86 36.69 118.93 26.52Q118.17 26.71 117.33 26.83L117.33 24.96Q116.31 25.08 115.51 25Q114.67 24.92 113.79 24.43Q113.91 26.45 113.91 28.50Q113.91 35.55 113.03 41.83M115.62 22.91L115.74 22.64L115.89 22.49Q116.31 23.29 117.33 24.77Q118.67 22.41 120.00 18.87Q119.12 18.11 117.56 16.51Q117.41 16.66 117.14 17.12Q116.19 15.86 115.28 14.42Q113.87 16.09 112.69 16.43Q113.79 19.90 115.62 22.91Z"/></svg>