<svg xmlns="http://www.w3.org/2000/svg" width="150" height="50"><path fill="#333" d="M26.82 41.14L25.11 41.14Q21.72 41.14 20.77 39.01Q21.95 37.98 23.39 36.88Q23.97 39.05 26.82 38.90Q27.62 38.86 28.65 38.63Q29.56 38.10 29.49 37.14Q29.41 36.04 27.62 35.35L23.81 33.83Q21.49 32.50 21.15 28.96Q20.96 26.83 23.13 26.26Q24.08 26.03 27.05 26.03Q31.92 26.03 32.84 28.54Q32.19 29.07 31.47 29.53L30.06 30.48Q29.56 28.58 26.33 28.35Q25.75 28.39 24.73 28.81Q24.16 29.15 24.16 30.25Q24.50 31.32 26.33 32.00Q27.39 32.39 30.06 33.49Q31.88 34.33 32.07 36.88Q32.15 37.52 32.07 38.51Q32.04 39.39 31.47 40.04Q29.87 41.14 26.82 41.14M31.58 43.73Q32.49 43.77 33.86 43.46Q34.93 42.78 34.74 41.56Q34.66 40.99 34.36 39.39Q33.83 36.46 32.04 35.24Q31.50 33.83 30.25 33.11Q28.99 32.69 26.52 31.74Q26.67 31.28 26.94 31.17Q27.54 30.71 28.19 30.67Q28.99 30.63 29.75 30.90L29.79 31.01L29.87 30.98L30.13 31.05L30.09 31.05Q31.20 31.55 31.39 32.80Q32.65 31.97 34.55 30.29Q34.28 29.57 33.29 28.39Q32.15 25.69 27.05 25.57Q23.89 25.53 21.91 26.10Q20.50 26.68 20.73 28.77Q20.84 30.03 21.76 32.12Q22.29 33.22 23.32 33.95Q24.00 35.43 25.30 36.12Q26.25 36.38 27.20 36.76L29.11 37.52Q28.76 38.63 26.82 38.51Q26.40 38.59 25.18 38.29L25.15 38.10L25.03 38.21Q24.16 37.83 23.51 36.34Q21.38 37.91 20.27 39.05Q20.54 39.92 21.57 40.72L21.42 40.87Q22.86 43.01 27.09 43.39Q28.34 43.50 31.58 43.73Z"/><path fill="#444" d="M109.72 49.63Q112.61 45.75 115.51 39.54Q112.39 32.99 106.29 24.92Q108.20 26.07 110.98 26.71Q114.52 31.40 116.95 36.61Q119.12 31.32 122.21 26.90Q124.41 26.56 126.51 25.76Q123.08 29.57 119.62 36.99L116.80 43.01Q115.35 46.13 113.60 48.76Q111.17 49.10 109.72 49.63M115.89 50.96Q117.60 48.07 119.05 44.80L121.79 38.48Q125.29 30.44 128.60 26.45Q127.27 27.13 125.37 27.82L126.39 26.41Q126.93 25.69 127.54 25Q124.87 26.07 122.02 26.52Q119.28 30.44 117.33 34.90Q115.70 31.59 113.91 28.77Q113.72 28.77 113.36 28.73Q112.99 28.69 112.80 28.69Q112.04 27.44 111.09 26.29Q107.93 25.65 105.19 23.93Q111.43 31.93 115.13 39.54Q112.96 44.61 108.88 50.24Q109.72 49.97 110.52 49.82L112.12 49.44Q111.51 50.16 110.33 51.80Q112.61 51.19 115.89 50.96Z"/><path d="M8 2 C67 36,65 8,140 47" stroke="#222" fill="none"/><path fill="#333" d="M85.91 40.99Q81.76 29.76 76.62 24.77Q78.06 25.38 81.03 26.03Q84.57 29.95 87.12 36.61Q89.79 29.26 92.42 26.22Q94.36 26.07 96.79 25.38Q93.63 28.12 91.46 32.69Q91.12 33.38 87.73 40.99Q87.12 41.07 85.91 40.99M90.55 43.43Q93.90 31.13 98.47 26.45L96.95 26.90Q96.19 27.17 95.35 27.28Q95.80 26.87 96.62 25.99Q97.44 25.11 97.90 24.70Q95.69 25.34 92.26 25.84Q89.56 29.04 87.51 34.63Q85.87 30.44 84.04 27.97L83.51 27.97Q83.20 27.93 82.98 27.93Q82.79 27.63 81.07 25.57Q77.72 25.08 75.48 23.93Q81.60 29.64 85.60 41.37L86.59 41.37Q86.97 42.06 87.81 43.35L89.18 43.35Q89.90 43.35 90.55 43.43Z"/><path fill="#222" d="M54.21 26.83Q56.00 26.98 57.83 26.98Q59.62 26.98 61.45 26.83Q61.33 27.47 61.33 28.20L61.33 29.53Q58.97 29.53 54.21 29.64Q54.21 35.58 53.07 40.57Q50.86 41.26 49.38 42.06Q51.70 35.24 51.43 28.12Q51.17 20.96 48.50 14.30Q52.20 16.85 56.95 17.08Q61.60 17.23 65.75 15.48Q65.48 16.32 65.25 17.12L64.76 18.72Q62.06 19.82 59.09 19.97Q56.15 20.13 53.30 19.40Q54.02 22.83 54.21 26.83M66.40 14.80Q61.79 16.93 56.92 16.62Q51.59 16.32 47.86 13.46Q50.75 20.43 51.05 28.05Q51.40 36.00 48.88 42.78Q49.53 42.36 50.90 41.71Q50.71 42.47 50.14 44.00Q52.46 42.93 55.35 42.44Q55.96 37.56 56.15 31.85Q57.94 31.81 59.77 31.81Q61.56 31.81 63.39 32.00Q63.27 31.05 63.27 30.14L63.27 28.24Q62.51 28.35 61.67 28.35Q61.67 27.47 61.75 26.45Q60.38 26.64 58.97 26.64Q57.56 26.64 56.19 26.60L56.12 24.39Q56.08 23.29 55.96 22.22Q56.95 22.30 57.94 22.30Q62.70 22.30 66.32 20.39Q66.81 18.57 67.73 15.94Q66.43 16.78 65.63 17.12Q65.90 16.36 66.40 14.80Z"/></svg>