<svg xmlns="http://www.w3.org/2000/svg" width="150" height="50"><path d="M14 3 C81 29,55 25,142 31" stroke="#222" fill="none"/><path fill="#333" d="M35.31 40.38Q32.34 36.50 29.71 27.86Q29.03 25.69 28.23 23.55L25.37 32.35Q23.55 37.26 21.15 40.49Q20.31 40.57 18.67 40.72Q18.79 39.54 18.79 38.29Q18.79 32.27 16.05 26.14Q12.93 19.25 7.06 14.26Q9.19 14.95 11.56 15.48Q20.23 23.93 21.53 34.90Q23.17 31.59 24.61 26.22Q26.59 18.72 27.09 17.31L29.33 17.31Q30.06 19.37 30.70 21.69L31.92 26.10Q33.48 31.55 34.89 34.78Q36.57 23.17 44.49 15.83Q46.01 15.48 48.98 14.84Q43.65 19.14 40.60 25.27Q37.52 31.51 37.52 38.29Q37.52 39.39 37.59 40.53L36.45 40.42Q35.88 40.38 35.31 40.38M41.55 43.27Q40.30 39.69 40.41 35.81Q40.75 24.28 50.12 16.02Q49.17 16.24 47.23 16.78Q48.18 15.94 50.08 14.15Q47.42 14.91 44.49 15.41Q36.99 22.53 35.08 32.00Q34.51 30.37 31.66 18.91Q31.24 18.99 30.29 18.99L29.98 17.92Q29.87 17.39 29.64 16.89L26.74 16.89Q25.91 19.33 24.63 24.45Q23.36 29.57 22.37 32.04Q20.81 24.16 15.25 17.84Q14.75 17.77 13.80 17.58Q13.08 16.74 11.52 15.10Q8.13 14.30 5.96 13.50Q11.63 18.19 14.91 24.39Q18.37 31.01 18.37 38.02Q18.37 39.58 18.18 41.18Q18.41 41.18 18.86 41.08Q19.32 40.99 19.55 40.99L19.55 42.02Q19.55 42.47 19.63 43.01Q20.77 42.93 23.05 42.78Q26.67 37.37 29.41 27.97Q32.19 36.76 35.16 40.72Q35.65 40.76 36.49 40.87Q37.33 41.90 38.39 42.97Q39.16 43.01 41.55 43.27Z"/><path fill="#333" d="M65.65 41.56Q63.52 41.14 61.35 40.99Q59.94 39.58 57.28 35.74Q55.07 38.82 52.67 41.26L50.58 41.64Q49.51 41.83 48.52 42.09Q52.71 37.98 55.72 33.87Q52.44 29.68 47.04 24.89Q49.28 25.65 51.99 26.07Q55.41 29.15 57.32 31.85Q59.45 28.81 62.19 26.29Q65.23 25.95 67.06 25.46Q62.53 29.11 58.84 33.68Q62.19 38.32 65.65 41.56M68.51 24.70Q65.61 25.53 62.07 25.88Q59.18 28.54 57.47 31.01Q56.59 29.99 54.96 28.01L54.76 28.01Q54.61 27.97 54.50 27.97Q53.74 27.13 52.10 25.69Q48.52 25.15 45.67 23.93Q51.19 28.73 55.22 33.87Q51.87 38.51 47.46 42.82Q47.68 42.70 51.19 41.86Q49.66 43.20 48.03 44.53Q51.22 43.62 54.38 43.43Q56.78 41.18 58.69 38.44Q60.09 40.19 61.31 41.37Q61.43 41.37 61.50 41.45L61.69 41.45Q62.95 42.55 64.28 43.62Q67.86 44.15 70.75 45.18Q64.59 40.72 60.89 35.55Q64.55 30.52 69.12 26.45Q68.17 26.79 67.18 27.02L65.16 27.47Q66.34 26.56 68.51 24.70Z"/><path fill="#333" d="M87.47 40.19Q85.60 40.11 83.93 40.68Q84.46 37.07 84.57 33.95Q84.69 30.90 84.46 27.25Q83.05 26.87 82.29 26.48L81.91 23.48Q82.67 24.12 84.27 24.70Q84.04 22.56 83.62 19.82Q85.91 20.51 87.54 20.36L87.43 24.96Q88.84 24.89 90.17 24.39Q90.13 25.30 89.90 27.06Q88.38 27.40 87.35 27.40Q87.35 29.57 87.35 33.83Q87.39 38.02 87.47 40.19M90.59 23.82Q90.32 23.93 89.71 24.16L90.09 21.38Q89.29 21.69 87.89 21.92Q87.89 21.23 88.04 19.86Q87.43 19.94 86.86 19.94Q84.73 19.94 83.09 19.21Q83.58 21.69 83.85 24.16Q82.98 23.82 81.45 22.79Q81.80 24.09 82.02 26.79Q82.48 27.02 83.66 27.44Q83.70 28.08 83.74 29.49L84.12 29.53L84.23 29.57Q84.27 30.79 84.27 31.97Q84.27 36.92 83.47 41.26Q83.66 41.14 85.60 40.61Q85.64 41.29 85.53 42.66Q86.33 42.59 87.12 42.59Q88.84 42.59 90.48 43.16Q89.14 37.45 89.33 29.53L91.73 29.15Q91.81 28.24 91.88 27.21L92.07 25.19Q91.50 25.46 90.32 25.91Q90.63 24.58 90.55 24.24Q90.51 24.01 90.59 23.82Z"/><path fill="#111" d="M114.42 39.92Q110.23 39.35 108.41 37.91Q106.58 36.46 106.16 33.45Q106.12 33.07 105.78 28.31Q105.86 27.17 105.78 25.91Q105.59 20.85 107.80 19.10Q110.46 17.01 118.23 16.32Q119.56 16.17 121.20 16.21Q121.20 16.21 124.17 16.21Q125.01 16.21 126.72 16.36Q126.22 17.31 125.20 20.39Q123.10 19.18 120.09 19.18Q119.33 19.18 118.53 19.25Q113.43 19.71 110.92 21.69Q108.90 23.29 108.75 26.64Q108.71 27.25 108.75 28.50Q108.86 33.34 111.26 35.43Q113.43 37.37 118.42 37.68Q121.54 37.83 124.55 36.04Q125.16 38.78 125.77 40.15Q123.67 40.42 122.04 40.38Q117.54 40.30 114.42 39.92M129.54 43.65Q127.75 40.65 127.06 38.06Q126.64 38.32 125.65 38.70Q125.31 37.91 125.12 37.07L124.74 35.35Q121.46 37.41 118.34 37.30Q114.08 37.11 111.76 35.35Q110.61 33.53 110.69 30.60Q110.84 26.10 113.32 23.97Q115.45 22.07 120.13 21.46Q120.93 21.35 121.65 21.35Q124.43 21.35 126.53 22.87Q127.02 20.74 128.24 17.50Q127.97 17.50 127.42 17.44Q126.87 17.39 126.60 17.39Q126.79 16.85 127.25 15.86Q127.02 15.86 124.53 15.79Q122.04 15.71 121.39 15.75Q110.88 16.09 107.42 18.68Q105.40 20.51 105.40 24.43Q105.40 25.53 105.51 28.24Q105.63 31.78 105.86 33.49Q106.24 36.61 107.84 38.13Q108.33 38.82 109.59 39.96Q112.86 41.75 118.11 42.51Q124.55 43.46 129.54 43.65Z"/></svg>