<svg xmlns="http://www.w3.org/2000/svg" width="150" height="50"><path d="M10 9 C92 40,89 30,139 10" stroke="#888" fill="none"/><path fill="#444" d="M28.27 40.19Q26.40 40.11 24.73 40.68Q25.26 37.07 25.37 33.95Q25.49 30.90 25.26 27.25Q23.85 26.87 23.09 26.48L22.71 23.48Q23.47 24.12 25.07 24.70Q24.84 22.56 24.42 19.82Q26.71 20.51 28.34 20.36L28.23 24.96Q29.64 24.89 30.97 24.39Q30.93 25.30 30.70 27.06Q29.18 27.40 28.15 27.40Q28.15 29.57 28.15 33.83Q28.19 38.02 28.27 40.19M31.39 23.82Q31.12 23.93 30.51 24.16L30.89 21.38Q30.09 21.69 28.69 21.92Q28.69 21.23 28.84 19.86Q28.23 19.94 27.66 19.94Q25.53 19.94 23.89 19.21Q24.38 21.69 24.65 24.16Q23.78 23.82 22.25 22.79Q22.60 24.09 22.82 26.79Q23.28 27.02 24.46 27.44Q24.50 28.08 24.54 29.49L24.92 29.53L25.03 29.57Q25.07 30.79 25.07 31.97Q25.07 36.92 24.27 41.26Q24.46 41.14 26.40 40.61Q26.44 41.29 26.33 42.66Q27.13 42.59 27.92 42.59Q29.64 42.59 31.28 43.16Q29.94 37.45 30.13 29.53L32.53 29.15Q32.61 28.24 32.68 27.21L32.87 25.19Q32.30 25.46 31.12 25.91Q31.43 24.58 31.35 24.24Q31.31 24.01 31.39 23.82Z"/><path fill="#333" d="M85.22 29.87Q84.95 29.83 84.65 29.83Q83.32 29.83 81.87 30.67Q80.54 31.78 80.54 33.68Q80.54 37.11 82.06 38.44Q83.01 39.62 85.30 39.62Q85.56 39.66 85.87 39.66Q87.58 39.66 88.72 38.02Q89.75 36.50 89.68 34.71Q89.75 34.25 89.75 33.83Q89.75 32.04 88.38 30.88Q87.01 29.72 85.22 29.87M89.71 40.04Q88.72 41.98 84.99 42.09Q81.57 42.17 79.97 40.57Q78.52 38.82 77.72 34.02Q77.42 32.27 77.42 31.01Q77.42 29.23 78.14 28.16Q79.51 26.79 82.48 26.79Q88.80 26.79 90.70 29.38Q90.89 28.58 91.31 26.98Q92.57 26.68 95.01 25.88Q92.57 31.51 92.34 37.83Q92.11 44.00 94.24 49.82Q92.53 49.21 90.74 48.95Q89.83 44.99 89.71 40.04M90.48 49.25Q91.20 49.40 92.61 49.71Q92.84 50.43 93.41 51.84Q96.00 52.56 98.28 53.86Q94.24 47.27 94.24 38.74Q94.24 32.39 96.72 26.60Q96.03 26.90 94.66 27.55Q94.97 26.75 95.61 25.19Q94.09 25.76 90.89 26.64Q90.78 27.21 90.48 28.39Q88.46 26.48 82.33 26.33Q79.13 26.26 77.76 27.74Q77.00 28.88 77.04 30.79Q77.15 33.79 78.14 37.56Q78.79 39.96 79.70 40.91L80.08 41.29Q81.26 44.07 86.71 44.30Q87.73 44.34 89.56 44.03Q89.87 46.97 90.48 49.25M87.09 32.16Q88.19 32.20 89.03 32.50Q89.22 33.03 89.33 33.64Q89.41 34.17 89.33 34.78Q89.33 36.69 88.31 37.98Q87.16 39.43 85.30 39.24Q84.00 39.24 83.05 38.82Q82.71 38.02 82.71 36.80Q82.67 36.46 82.67 36.15Q82.67 34.40 84.00 33.24Q85.34 32.08 87.09 32.16Z"/><path fill="#333" d="M58.51 20.13Q54.17 20.09 50.48 19.10Q52.00 23.67 52.20 28.50Q52.39 33.30 51.17 37.91Q53.98 37.30 57.49 37.14Q61.41 36.95 63.20 34.52Q64.72 32.46 64.91 28.35Q64.99 26.60 64.53 24.89Q63.24 20.13 58.51 20.13M46.60 42.13Q49.49 36.46 49.49 29.76Q49.49 21.23 45.19 14.23Q50.44 16.89 58.71 17.08Q67.58 17.27 67.92 24.43Q68.03 27.13 67.99 28.58Q67.92 33.26 67.08 35.43Q66.66 36.54 65.90 37.37Q64.53 38.90 61.90 39.39Q60.34 39.69 57.33 39.92Q51.21 40.38 46.60 42.13M64.53 42.02Q67.27 41.67 68.91 40.19Q70.09 38.40 70.05 35.66Q70.09 34.33 69.94 30.82L69.55 26.26Q69.36 23.97 68.41 21.88Q67.92 20.96 67.23 20.32L67.19 20.13Q65.52 17.20 61.10 16.82Q58.40 16.66 51.40 15.94Q48.12 15.48 44.43 13.46Q49.26 20.85 49.26 29.61Q49.26 36.61 45.91 42.78Q46.60 42.51 47.93 42.02Q47.59 42.85 46.71 44.34Q49.76 43.27 53.11 42.78Q55.16 42.44 58.82 42.32Q62.70 42.21 64.53 42.02M64.57 28.39Q64.19 36.38 57.49 36.76Q55.55 36.88 53.49 37.14Q54.21 33.30 54.21 29.64Q54.17 25.91 53.45 22.07Q55.74 22.45 60.42 22.45Q61.79 22.30 63.43 23.25Q64.72 25.53 64.57 28.39Z"/><path fill="#444" d="M112.86 36.92Q114.00 37.83 115.41 37.68Q118.34 37.87 118.99 34.52Q119.60 31.36 119.60 27.97L119.60 25.38Q119.60 24.12 119.26 22.87Q118.04 25.19 116.06 29.95Q114.08 34.71 112.86 36.92M117.89 20.43Q116.74 19.63 115.41 19.63Q113.93 19.48 112.82 20.39Q111.72 21.31 111.53 22.79Q111.19 24.16 111.15 25.65Q111.15 25.65 111.15 28.50Q111.15 30.86 111.60 34.48Q113.51 29.72 117.89 20.43M119.45 39.24Q117.70 40.15 115.37 40.15L113.74 40.15Q110.50 40.15 109.36 38.44Q108.56 36.27 108.48 33.34Q108.44 31.59 108.37 28.12Q108.33 26.90 108.18 23.86Q108.10 21.57 108.41 19.59Q108.90 16.66 113.24 16.43Q114.00 16.40 115.34 16.43Q121.01 16.59 122.07 20.05Q122.68 21.95 122.64 23.82Q122.57 28.81 122.49 30.03Q122.30 33.83 122.00 35.13Q121.35 38.25 119.45 39.24M124.40 39.01Q124.62 36.23 124.59 34.44L124.51 29.83Q124.43 26.83 123.90 21.31Q123.37 19.48 122.07 18.72Q120.51 16.17 115.34 16.02Q114.46 15.98 113.13 16.02Q108.60 16.09 108.10 19.21Q107.72 21.54 107.84 23.63Q108.18 28.01 108.14 31.36Q108.10 35.05 108.22 36.08Q108.60 39.16 110.12 39.96Q111.60 42.17 115.60 42.44Q119.18 42.66 119.83 42.63Q122.68 42.47 123.82 40.87Q124.32 40.19 124.40 39.01M115.79 37.30Q116.48 35.85 117.54 33.15L119.26 28.92Q119.22 30.56 118.84 33.91Q118.19 36.80 115.79 37.30M113.81 25Q114.27 23.21 114.95 22.64Q115.41 22.22 116.71 22.03Q114.99 25.69 113.13 30.33Q113.13 27.63 113.81 25Z"/></svg>