<svg xmlns="http://www.w3.org/2000/svg" width="150" height="50"><path d="M17 46 C61 25,86 30,139 40" stroke="#777" fill="none"/><path fill="#333" d="M20.54 47.08Q19.59 47.27 17.68 47.58Q18.98 45.41 20.01 44.11Q21.76 44.42 21.91 44.42Q22.21 44.49 22.75 44.38Q23.43 44.30 23.62 44.30Q26.17 44.03 26.10 41.86Q26.06 40.38 25.95 34.14Q25.91 30.60 25.98 26.45L27.39 26.26Q28.04 26.14 28.72 25.91Q28.50 30.33 28.53 34.71Q28.57 39.09 29.11 43.46Q29.18 43.77 29.18 44.03Q29.18 45.67 27.51 46.05Q24.38 46.43 20.54 47.08M25.18 19.75Q26.21 18.34 28.04 15.56Q28.72 16.47 30.06 18.30L27.32 22.87L25.18 19.75M30.32 49.48Q30.86 49.52 31.62 49.17Q31.96 48.49 31.96 48.03Q31.92 47.65 31.81 47.04Q30.48 40.65 30.48 32.73Q30.48 29.87 30.63 26.98Q30.09 27.17 28.95 27.47Q28.95 26.98 28.99 26.45L29.11 25.38Q27.39 26.03 25.60 26.07Q25.53 30.37 25.56 33.95L25.72 41.83Q25.79 43.81 23.62 43.92Q23.39 43.92 22.88 43.98Q22.37 44.03 22.10 44.03Q21.61 44.00 20.04 43.58Q19.59 44.19 18.48 45.86L16.96 48.18Q17.84 47.99 19.47 47.61L19.02 48.34L18.48 48.98Q20.77 48.83 22.10 48.91Q24.38 49.06 30.32 49.48M27.28 23.59L27.62 23.06Q28.00 23.52 28.95 25.11Q30.48 21.99 32.04 18.91Q31.05 17.31 30.09 16.02Q29.90 16.24 29.56 16.78Q29.14 16.13 28.15 14.84Q26.97 16.43 24.65 19.78Q25.56 21.00 27.28 23.59Z"/><path fill="#333" d="M60.53 29.49Q59.35 28.73 58.71 28.77Q57.33 28.85 56.29 29.85Q55.24 30.86 55.35 32.23Q55.66 36.57 54.78 41.10Q52.58 41.56 51.47 42.09Q52.96 37.91 52.73 33.45Q52.50 28.96 50.79 24.89Q51.93 25.57 54.21 26.22L54.78 28.92Q55.47 26.03 59.73 26.03Q60.11 25.95 60.42 25.95Q61.71 25.95 62.97 26.64Q61.67 28.01 60.53 29.49M62.25 31.43Q63.12 30.25 64.80 27.82Q64.34 27.47 62.82 27.21Q63.16 26.90 63.62 26.29Q61.71 25.38 59.77 25.57Q57.83 25.76 57.11 26.03Q55.70 26.45 54.90 27.55L54.71 26.71L54.52 25.88Q52.12 25.46 50.14 24.12Q52.27 28.50 52.50 33.38Q52.73 38.29 50.98 42.82Q52.04 42.32 52.92 42.02Q52.65 43.12 52.16 44.19Q55.01 43.35 57.14 43.24L57.33 38.70Q57.45 36.46 57.45 34.21Q57.45 33.03 58.36 32.06Q59.28 31.09 60.42 31.01Q61.03 30.86 61.75 31.55L62.13 31.47L62.25 31.43M57.18 29.64L57.14 29.72L57.14 29.68L57.18 29.64Z"/><path fill="#222" d="M116.10 23.40Q112.90 23.40 111.07 22.34Q113.58 20.96 118.46 16.74Q119.18 16.55 120.47 15.94Q119.14 21.88 119.03 28.24Q118.91 34.59 119.98 40.68Q118.30 39.96 116.17 39.85Q116.06 35.70 116.06 31.62Q116.06 27.51 116.10 23.40M115.72 40.23Q116.93 40.23 117.89 40.42Q117.96 41.10 118.15 42.47Q121.01 43.01 123.44 45.25Q120.97 38.13 120.93 30.67Q120.86 23.21 122.68 15.98Q122.15 16.40 120.55 17.50Q120.74 16.74 121.05 15.22Q119.71 15.98 118.27 16.36Q114.50 19.94 110.20 22.22Q111.60 23.32 113.96 23.67Q113.32 24.20 112.02 25.27Q113.51 25.65 115.72 25.65L115.72 40.23Z"/><path fill="#333" d="M81.97 32.96Q85.05 32.58 88.25 32.69Q88.21 30.14 88.21 27.74Q88.21 25.27 88.40 22.72Q87.18 24.43 81.97 32.96M91.86 40.30Q90.19 40.00 88.40 39.92Q88.21 37.56 88.10 35.09Q82.77 34.90 78.05 36.31Q78.16 35.81 78.35 34.82Q80.14 31.66 83.72 25.38Q86.61 20.51 90.04 16.62Q90.91 16.43 92.59 16.17Q90.68 22.60 90.68 29.64Q90.68 31.13 90.76 32.61L92.05 32.73Q92.66 32.77 93.27 32.88Q93.39 33.87 93.65 35.81Q92.44 35.55 90.95 35.35Q91.18 37.37 91.86 40.30M93.54 32.50Q93.35 32.42 93.16 32.42L92.78 32.42Q92.66 30.94 92.66 29.53Q92.66 23.13 94.72 17.12Q93.96 17.39 92.51 17.77Q92.74 17.01 93.20 15.60Q91.90 15.98 89.85 16.21Q85.93 20.55 80.71 29.91L82.80 26.26Q82.39 27.28 82.12 27.86L77.66 36.88Q78.31 36.73 79.45 36.34L79.30 36.57Q79.19 37.26 78.88 38.51Q82.99 37.18 87.83 37.37Q87.87 38.32 88.06 40.30Q89.12 40.30 90.19 40.42Q90.34 41.10 90.61 42.47Q92.51 42.70 95.52 43.62Q94.53 41.48 93.62 38.21L95.06 38.67Q95.75 38.90 96.43 39.24Q95.63 36.73 95.48 35.05Q94.91 34.90 93.77 34.67Q93.54 33.38 93.54 32.50M85.55 32.35Q86.31 31.05 87.87 28.50Q87.87 29.45 87.83 30.41Q87.83 31.40 87.87 32.35Q87.30 32.31 86.73 32.31Q86.15 32.35 85.55 32.35Z"/></svg>