<?xml version="1.0" encoding="UTF-8"?>
<!DOCTYPE svg PUBLIC "-//W3C//DTD SVG 1.1//EN" "http://www.w3.org/Graphics/SVG/1.1/DTD/svg11.dtd">
<!-- Creator: CorelDRAW X6 -->
<svg xmlns="http://www.w3.org/2000/svg" xml:space="preserve" width="10mm" height="10mm" version="1.1" style="shape-rendering:geometricPrecision; text-rendering:geometricPrecision; image-rendering:optimizeQuality; fill-rule:evenodd; clip-rule:evenodd"
viewBox="0 0 1000 1000"
 xmlns:xlink="http://www.w3.org/1999/xlink">
 <defs>
  <style type="text/css">
   <![CDATA[
    .fil0 {fill:transparent}
    .fil1 {fill:white}
   ]]>
  </style>
 </defs>
 <g id="图层_x0020_1">
  <metadata id="CorelCorpID_0Corel-Layer"/>
  <g id="_624639744">
   <rect class="fil0" width="1000" height="1000" rx="186" ry="200"/>
   <path class="fil1" d="M410 350l180 0c33,0 60,27 60,60l0 180c0,33 -27,60 -60,60l-180 0c-33,0 -60,-27 -60,-60l0 -180c0,-33 27,-60 60,-60zm30 50l120 0c22,0 40,18 40,40l0 120c0,22 -18,40 -40,40l-120 0c-22,0 -40,-18 -40,-40l0 -120c0,-22 18,-40 40,-40z"/>
   <path class="fil1" d="M500 100c221,0 400,179 400,400 0,221 -179,400 -400,400 -221,0 -400,-179 -400,-400 0,-221 179,-400 400,-400zm0 150c138,0 250,112 250,250 0,138 -112,250 -250,250 -138,0 -250,-112 -250,-250 0,-138 112,-250 250,-250z"/>
  </g>
 </g>
</svg>
