<?xml version="1.0" encoding="UTF-8"?>
<!DOCTYPE svg PUBLIC "-//W3C//DTD SVG 1.1//EN" "http://www.w3.org/Graphics/SVG/1.1/DTD/svg11.dtd">
<!-- Creator: CorelDRAW X6 -->
<svg xmlns="http://www.w3.org/2000/svg" xml:space="preserve" width="10mm" height="10mm" version="1.1" style="shape-rendering:geometricPrecision; text-rendering:geometricPrecision; image-rendering:optimizeQuality; fill-rule:evenodd; clip-rule:evenodd"
viewBox="0 0 1000 1000"
 xmlns:xlink="http://www.w3.org/1999/xlink">
 <defs>
  <style type="text/css">
   <![CDATA[
    .fil0 {fill:#A0CF3C}
    .fil1 {fill:white;fill-rule:nonzero}
   ]]>
  </style>
 </defs>
 <g id="图层_x0020_1">
  <metadata id="CorelCorpID_0Corel-Layer"/>
  <g id="_144766320">
   <rect class="fil0" width="1000" height="1000" rx="186" ry="200"/>
   <path class="fil1" d="M738 225c0,33 -24,65 -59,65 -56,0 -64,-46 -71,-46 -24,0 -38,119 -39,133 -12,98 -12,269 -54,350 -31,59 -93,124 -165,124 -44,0 -89,-24 -89,-73 0,-35 26,-69 62,-69 53,0 61,51 65,51 21,0 34,-46 39,-139 6,-110 16,-194 28,-251 20,-90 81,-220 189,-220 48,0 94,20 94,75z"/>
  </g>
 </g>
</svg>
