<?xml version="1.0" encoding="UTF-8"?>
<!DOCTYPE svg PUBLIC "-//W3C//DTD SVG 1.1//EN" "http://www.w3.org/Graphics/SVG/1.1/DTD/svg11.dtd">
<!-- Creator: CorelDRAW X6 -->
<svg xmlns="http://www.w3.org/2000/svg" xml:space="preserve" width="10mm" height="10mm" version="1.1" style="shape-rendering:geometricPrecision; text-rendering:geometricPrecision; image-rendering:optimizeQuality; fill-rule:evenodd; clip-rule:evenodd"
viewBox="0 0 1000 1000"
 xmlns:xlink="http://www.w3.org/1999/xlink">
 <defs>
  <style type="text/css">
   <![CDATA[
    .fil0 {fill:transparent}
    .fil1 {fill:white}
   ]]>
  </style>
 </defs>
 <g id="图层_x0020_1">
  <metadata id="CorelCorpID_0Corel-Layer"/>
  <g id="_638440304">
   <rect class="fil0" width="1000" height="1000" rx="186" ry="200"/>
   <g>
    <polygon class="fil1" points="500,96 675,197 850,298 850,500 850,702 675,803 500,904 325,803 150,702 150,500 150,298 325,197 "/>
    <polygon class="fil0" points="500,177 640,258 780,338 780,500 780,662 640,742 500,823 360,742 220,662 220,500 220,338 360,258 "/>
    <circle class="fil1" cx="500" cy="500" r="242"/>
    <circle class="fil0" cx="500" cy="500" r="202"/>
   </g>
  </g>
 </g>
</svg>
