<?xml version="1.0" encoding="utf-8"?>
<!-- Generator: Adobe Illustrator 16.0.3, SVG Export Plug-In . SVG Version: 6.00 Build 0)  -->
<!DOCTYPE svg PUBLIC "-//W3C//DTD SVG 1.1//EN" "http://www.w3.org/Graphics/SVG/1.1/DTD/svg11.dtd">
<svg version="1.1" id="Layer_1" xmlns="http://www.w3.org/2000/svg" xmlns:xlink="http://www.w3.org/1999/xlink" x="0px" y="0px"
	 width="28.347px" height="28.346px" viewBox="0 0 28.347 28.346" enable-background="new 0 0 28.347 28.346" xml:space="preserve">
<g id="图层_x0020_1">
	<g id="_638440304">
		<path fill="none" d="M5.272,0h17.801c2.912,0,5.273,2.538,5.273,5.669v17.008c0,3.131-2.361,5.669-5.273,5.669H5.272
			C2.36,28.346,0,25.808,0,22.677V5.669C0,2.538,2.36,0,5.272,0z"/>
		<g>
			<polygon fill="none" stroke="#FFFFFF" stroke-width="1.5" stroke-miterlimit="10" points="14.173,4.475 18.377,6.907 
				22.581,9.309 22.581,14.173 22.581,19.036 18.377,21.44 14.173,23.871 9.97,21.44 5.767,19.036 5.767,14.173 5.767,9.309 
				9.97,6.907 			"/>
			<circle fill="none" stroke="#FFFFFF" stroke-width="1.5" stroke-miterlimit="10" cx="14.173" cy="14.173" r="5.083"/>
		</g>
	</g>
</g>
</svg>
