<?xml version="1.0" encoding="utf-8"?>
<!-- Generator: Adobe Illustrator 16.0.3, SVG Export Plug-In . SVG Version: 6.00 Build 0)  -->
<!DOCTYPE svg PUBLIC "-//W3C//DTD SVG 1.1//EN" "http://www.w3.org/Graphics/SVG/1.1/DTD/svg11.dtd">
<svg version="1.1" id="Layer_1" xmlns="http://www.w3.org/2000/svg" xmlns:xlink="http://www.w3.org/1999/xlink" x="0px" y="0px"
	 width="28.348px" height="28.346px" viewBox="0 0 28.348 28.346" enable-background="new 0 0 28.348 28.346" xml:space="preserve">
<g id="图层_x0020_1">
	<g id="_638440304">
		<path fill="none" d="M5.272,0h17.801c2.912,0,5.273,2.538,5.273,5.669v17.008c0,3.131-2.361,5.669-5.273,5.669H5.272
			C2.36,28.346,0,25.808,0,22.677V5.669C0,2.538,2.36,0,5.272,0z"/>
		<g>
			<polygon fill="none" stroke="#FFFFFF" stroke-width="2" stroke-miterlimit="10" points="14.173,4.09 18.544,6.618 22.914,9.116 
				22.914,14.173 22.914,19.23 18.544,21.728 14.173,24.256 9.803,21.728 5.434,19.23 5.434,14.173 5.434,9.116 9.803,6.618 			"/>
			<circle fill="none" stroke="#FFFFFF" stroke-width="1.7" stroke-miterlimit="10" cx="14.173" cy="14.173" r="5.284"/>
		</g>
	</g>
</g>
</svg>
